<svg height="512pt" viewBox="0 0 512.0256 512" width="512pt" xmlns="http://www.w3.org/2000/svg"><path d="m331.433594 500.269531c-2.933594 0-5.742188-1.515625-7.3125-4.136719l-20.445313-34.074218c-6.160156-10.207032-4.734375-18.960938-2.449219-24.492188 8.796876-21.367187 45.816407-31.988281 52.796876-33.824218 2.984374-1.382813 19.480468-9.863282 19.480468-28.101563 0-.546875.050782-1.101563.164063-1.636719.570312-2.925781 14.566406-71.519531 59.183593-71.519531 13.050782 0 29.382813 1.316406 39.921876 11.582031l21.519531 21.519532c2.355469 2.347656 3.125 5.863281 1.972656 8.984374-27.070313 73.414063-87.714844 131.464844-162.21875 155.292969-.871094.269531-1.742187.40625-2.613281.40625zm59.121094-123.671875c-.589844 30.507813-29.261719 42.625-30.5 43.128906-.367188.160157-.757813.28125-1.152344.382813-13.832032 3.5-37.441406 13.105469-41.90625 23.960937-.800782 1.953126-1.382813 4.761719 1.296875 9.191407l16.921875 28.210937c64.894531-22.84375 117.761718-73.703125 143.078125-137.71875l-17.535157-17.539062c-4.710937-4.582032-13.347656-6.664063-27.929687-6.664063-28.425781-.007812-40.796875 50.5-42.273437 57.046875zm0 0"/><path d="m426.667969 128.019531c-23.527344 0-42.667969-19.136719-42.667969-42.664062 0-23.527344 19.140625-42.667969 42.667969-42.667969 23.523437 0 42.664062 19.140625 42.664062 42.667969 0 23.527343-19.140625 42.664062-42.664062 42.664062zm0-68.265625c-14.117188 0-25.601563 11.488282-25.601563 25.601563s11.484375 25.597656 25.601563 25.597656c14.113281 0 25.597656-11.484375 25.597656-25.597656s-11.484375-25.601563-25.597656-25.601563zm0 0"/><path d="m426.667969 221.886719c-2.28125 0-4.464844-.902344-6.070313-2.53125-3.230468-3.269531-79.265625-80.683594-79.265625-128.890625 0-49.875 38.28125-90.4531252 85.335938-90.4531252 47.050781 0 85.332031 40.5781252 85.332031 90.4531252 0 48.199218-76.03125 125.621094-79.265625 128.890625-1.605469 1.628906-3.789063 2.53125-6.066406 2.53125zm0-204.796875c-37.640625 0-68.269531 32.910156-68.269531 73.386718 0 31.273438 44.757812 85.484376 68.269531 110.566407 23.507812-25.097657 68.265625-79.328125 68.265625-110.566407 0-40.476562-30.625-73.386718-68.265625-73.386718zm0 0"/><path d="m85.332031 418.15625c-23.523437 0-42.664062-19.140625-42.664062-42.667969 0-23.527343 19.140625-42.667969 42.664062-42.667969 23.527344 0 42.667969 19.140626 42.667969 42.667969 0 23.527344-19.140625 42.667969-42.667969 42.667969zm0-68.269531c-14.113281 0-25.597656 11.488281-25.597656 25.601562s11.484375 25.601563 25.597656 25.601563c14.117188 0 25.601563-11.488282 25.601563-25.601563s-11.484375-25.601562-25.601563-25.601562zm0 0"/><path d="m85.332031 512.019531c-2.277343 0-4.460937-.902343-6.066406-2.53125-3.234375-3.269531-79.265625-80.683593-79.265625-128.890625 0-49.875 38.28125-90.453125 85.332031-90.453125 47.054688 0 85.335938 40.578125 85.335938 90.453125 0 48.199219-76.035157 125.621094-79.265625 128.890625-1.605469 1.628907-3.789063 2.53125-6.070313 2.53125zm0-204.796875c-37.640625 0-68.265625 32.910156-68.265625 73.386719 0 31.273437 44.757813 85.484375 68.265625 110.566406 23.511719-25.097656 68.269531-79.328125 68.269531-110.566406 0-40.476563-30.628906-73.386719-68.269531-73.386719zm0 0"/><path d="m200.011719 505.21875c-6.058594 0-14.949219-2.472656-29.363281-7.816406l-1.425782-.527344c-12.464844-4.488281-24.660156-10-36.246094-16.367188-5.703124-3.125-11.46875-6.585937-17.128906-10.308593-1.996094-1.304688-3.351562-3.386719-3.738281-5.75-.382813-2.363281.230469-4.78125 1.707031-6.648438 26.019532-33.160156 39.773438-59.851562 39.773438-77.203125 0-27.082031-13.8125-51.871094-36.042969-64.699218-2.097656-1.210938-3.585937-3.257813-4.085937-5.621094-.503907-2.375.023437-4.839844 1.457031-6.800782 11.128906-15.242187 16.769531-32.554687 16.769531-51.464843 0-6.640625-2.238281-12.007813-6.835938-16.402344-11.28125-10.769531-37.128906-16.023437-70.996093-14.464844-16.863281.792969-32.691407-4.375-44.476563-14.488281-2.40625-2.066406-3.464844-5.300781-2.757812-8.386719 15.242187-66.03125 57.164062-124.410156 115.039062-160.164062 5.09375-3.148438 12.332032-2.277344 25.789063 3.082031 6.21875 2.464844 11.867187 5.996094 16.773437 10.484375 8.339844 7.621094 14.652344 18.152344 18.773438 31.320313 4.867187 15.476562 10.964844 47.625 2.960937 69.828124-.664062 1.84375-1.542969 3.589844-2.4375 5.339844l-.796875 1.554688c-5.453125 11.144531-4.769531 23.789062 1.871094 34.710937 7.109375 11.710938 19.839844 19.183594 33.203125 19.5 24.269531.574219 58.257813 11.417969 82.320313 59.792969 2.039062 4.105469 3.789062 8.242188 5.195312 12.273438 20.652344 59.269531-22.789062 97.285156-61.132812 130.832031-9.417969 8.242187-18.320313 16.023437-26.050782 23.902343-5.015625 5.109376-7.953125 10.050782-8.722656 14.660157-.613281 3.738281.019531 8.0625.691406 12.636719l.292969 1.980468c1.140625 8.039063 1.78125 16.238282 1.925781 24.363282.0625 3.472656-1.527344 6.613281-4.332031 8.609374-2.09375 1.46875-4.59375 2.242188-7.972656 2.242188zm-67.003907-44.378906c2.730469 1.644531 5.472657 3.222656 8.183594 4.71875 10.8125 5.9375 22.1875 11.082031 33.820313 15.273437l1.570312.570313c9.144531 3.390625 14.855469 5.105468 18.386719 5.941406-.289062-5-.785156-10.011719-1.484375-14.953125l-.273437-1.902344c-.792969-5.410156-1.6875-11.542969-.640626-17.902343 1.351563-8.148438 5.855469-16.171876 13.382813-23.832032 8.183594-8.339844 17.320313-16.324218 27-24.789062 35.941406-31.453125 73.121094-63.976563 56.25-112.367188-1.167969-3.363281-2.644531-6.828125-4.359375-10.300781-20.277344-40.746094-47.875-49.859375-67.449219-50.3125-19.121093-.460937-37.273437-11.074219-47.386719-27.699219-9.71875-16-10.664062-34.621094-2.609374-51.082031l.957031-1.882813c.554687-1.078124 1.140625-2.152343 1.550781-3.296874 5.375-14.914063 2.476562-40.933594-3.183594-58.929688-3.214844-10.257812-7.925781-18.269531-14-23.824219-3.378906-3.089843-7.273437-5.511719-11.574218-7.226562-7.011719-2.792969-10.433594-3.476563-11.78125-3.636719-51.816407 32.460938-89.738282 84.410156-104.816407 143.351562 7.9375 5.230469 17.84375 7.839844 28.519531 7.328126 27.613282-1.261719 64.535157.992187 83.566407 19.167968 8.039062 7.679688 12.117187 17.347656 12.117187 28.75 0 19.265625-5.179687 37.785156-15.070312 54.058594 23.003906 16.773438 36.972656 44.550781 36.972656 74.527344.011719 20.039062-12.652344 47.003906-37.648438 80.25zm0 0"/><path d="m256 512.019531c-49.960938 0-98.421875-14.453125-140.144531-41.804687-1.996094-1.304688-3.351563-3.386719-3.734375-5.75-.386719-2.363282.230468-4.777344 1.703125-6.648438 26.027343-33.160156 39.785156-59.859375 39.785156-77.207031 0-40.464844-30.628906-73.386719-68.265625-73.386719-22.710938 0-43.871094 12.109375-56.601562 32.382813-1.761719 2.789062-4.984376 4.316406-8.226563 3.933593-3.277344-.390624-6.035156-2.628906-7.085937-5.75-8.890626-26.429687-13.4023442-53.933593-13.4023442-81.769531 0-141.15625 114.8398442-255.9999998 256.0000002-255.9999998 41.25 0 80.707031 9.5781248 117.28125 28.4687498 2.304687 1.195313 3.933594 3.363281 4.445312 5.898438.511719 2.53125-.164062 5.160156-1.816406 7.148437-11.292969 13.527344-17.511719 30.898438-17.511719 48.929688 0 31.257812 44.714844 85.4375 68.230469 110.535156 9.808594-10.539062 29.6875-32.847656 45.5-56.613281 1.699219-2.558594 4.625-3.871094 7.699219-3.789063 3.054687.214844 5.769531 2.058594 7.097656 4.824219 16.640625 34.667969 25.074219 71.882813 25.074219 110.589844-.027344 141.167969-114.867188 256.007812-256.027344 256.007812zm-122.992188-51.171875c37.121094 22.339844 79.445313 34.105469 122.992188 34.105469 131.746094 0 238.933594-107.1875 238.933594-238.933594 0-31.109375-5.835938-61.191406-17.375-89.597656-20.898438 28.628906-43.734375 51.824219-44.824219 52.933594-3.199219 3.25-8.925781 3.25-12.136719 0-3.230468-3.269531-79.265625-80.683594-79.265625-128.890625 0-18.363282 5.308594-36.207032 15.105469-51.242188-31.566406-14.703125-65.296875-22.144531-100.4375-22.144531-131.746094 0-238.933594 107.1875-238.933594 238.933594 0 20.539062 2.636719 40.894531 7.84375 60.707031 15.855469-16.878906 37.476563-26.574219 60.421875-26.574219 47.054688 0 85.335938 40.578125 85.335938 90.453125 0 20.03125-12.664063 46.996094-37.660157 80.25zm0 0"/><path d="m187.726562 349.886719c-1.519531 0-3.058593-.410157-4.449218-1.246094-4.019532-2.457031-5.289063-7.703125-2.832032-11.730469.214844-.351562 5.386719-8.78125 14.8125-21.710937 2.785157-3.796875 8.117188-4.648438 11.921876-1.867188 3.808593 2.773438 4.644531 8.105469 1.871093 11.910157-8.976562 12.304687-13.996093 20.472656-14.046875 20.558593-1.605468 2.636719-4.402344 4.085938-7.277344 4.085938zm0 0"/><path d="m229.863281 294.175781c-1.996093 0-4.003906-.703125-5.625-2.125-3.539062-3.109375-3.890625-8.5-.785156-12.042969 10.257813-11.671874 20.855469-22.585937 31.496094-32.441406 3.449219-3.191406 8.859375-3.015625 12.058593.476563 3.199219 3.457031 2.996094 8.855469-.46875 12.058593-10.214843 9.4375-20.394531 19.933594-30.269531 31.171876-1.679687 1.910156-4.035156 2.902343-6.40625 2.902343zm65.253907-59.8125c-2.679688 0-5.324219-1.253906-6.980469-3.617187-2.714844-3.859375-1.792969-9.183594 2.066406-11.894532 13.175781-9.285156 26.511719-17.042968 39.636719-23.058593 4.28125-1.953125 9.351562-.09375 11.3125 4.199219 1.964844 4.28125.085937 9.351562-4.195313 11.316406-12.179687 5.578125-24.601562 12.816406-36.925781 21.492187-1.5 1.050781-3.214844 1.5625-4.914062 1.5625zm0 0"/><path d="m375.578125 198.582031c-4.0625 0-7.65625-2.898437-8.390625-7.03125-.824219-4.632812 2.261719-9.0625 6.90625-9.898437 8.992188-1.601563 18.074219-2.421875 26.972656-2.421875 4.710938 0 8.535156 3.8125 8.535156 8.53125s-3.824218 8.535156-8.535156 8.535156c-7.902344 0-15.964844.726563-23.96875 2.160156-.511718.082031-1.015625.125-1.519531.125zm0 0"/></svg>